<mxfile host="app.diagrams.net" agent="Mozilla/5.0 (Windows NT 10.0; Win64; x64) AppleWebKit/537.36 (KHTML, like Gecko) Chrome/131.0.0.0 Safari/537.36 Edg/131.0.0.0" version="25.0.3">
  <diagram name="Page-1" id="8YmHpRjFNocuArIfzHw1">
    <mxGraphModel dx="2934" dy="2230" grid="1" gridSize="10" guides="1" tooltips="1" connect="1" arrows="1" fold="1" page="1" pageScale="1" pageWidth="850" pageHeight="1100" math="0" shadow="0">
      <root>
        <mxCell id="0" />
        <mxCell id="1" parent="0" />
        <mxCell id="lVMfPq70TvMpyvhITLPj-4" value="" style="edgeStyle=orthogonalEdgeStyle;rounded=0;orthogonalLoop=1;jettySize=auto;html=1;" edge="1" parent="1" source="lVMfPq70TvMpyvhITLPj-2">
          <mxGeometry relative="1" as="geometry">
            <mxPoint x="-599" y="-980" as="targetPoint" />
          </mxGeometry>
        </mxCell>
        <mxCell id="lVMfPq70TvMpyvhITLPj-2" value="&lt;font data-font-src=&quot;https://fonts.googleapis.com/css?family=Sarabun&quot; face=&quot;Sarabun&quot;&gt;Start&lt;/font&gt;" style="ellipse;whiteSpace=wrap;html=1;" vertex="1" parent="1">
          <mxGeometry x="-664.0000000000001" y="-1040" width="130" height="30" as="geometry" />
        </mxCell>
        <mxCell id="lVMfPq70TvMpyvhITLPj-6" value="" style="edgeStyle=orthogonalEdgeStyle;rounded=0;orthogonalLoop=1;jettySize=auto;html=1;" edge="1" parent="1" source="lVMfPq70TvMpyvhITLPj-3" target="lVMfPq70TvMpyvhITLPj-5">
          <mxGeometry relative="1" as="geometry" />
        </mxCell>
        <mxCell id="lVMfPq70TvMpyvhITLPj-3" value="กำหนดตัวแปร random ให้สุ่มตัวเลข" style="rounded=0;whiteSpace=wrap;html=1;" vertex="1" parent="1">
          <mxGeometry x="-715" y="-840" width="230" height="40" as="geometry" />
        </mxCell>
        <mxCell id="lVMfPq70TvMpyvhITLPj-8" value="" style="edgeStyle=orthogonalEdgeStyle;rounded=0;orthogonalLoop=1;jettySize=auto;html=1;" edge="1" parent="1" source="lVMfPq70TvMpyvhITLPj-5" target="lVMfPq70TvMpyvhITLPj-7">
          <mxGeometry relative="1" as="geometry" />
        </mxCell>
        <mxCell id="lVMfPq70TvMpyvhITLPj-5" value="กำหนดตัวแปร Max" style="rounded=0;whiteSpace=wrap;html=1;" vertex="1" parent="1">
          <mxGeometry x="-680" y="-770" width="160" height="40" as="geometry" />
        </mxCell>
        <mxCell id="lVMfPq70TvMpyvhITLPj-13" value="" style="edgeStyle=orthogonalEdgeStyle;rounded=0;orthogonalLoop=1;jettySize=auto;html=1;" edge="1" parent="1" source="lVMfPq70TvMpyvhITLPj-7" target="lVMfPq70TvMpyvhITLPj-12">
          <mxGeometry relative="1" as="geometry" />
        </mxCell>
        <mxCell id="lVMfPq70TvMpyvhITLPj-7" value="กำหนดตัวแปร Min" style="rounded=0;whiteSpace=wrap;html=1;" vertex="1" parent="1">
          <mxGeometry x="-680" y="-700" width="160" height="40" as="geometry" />
        </mxCell>
        <mxCell id="lVMfPq70TvMpyvhITLPj-10" value="" style="edgeStyle=orthogonalEdgeStyle;rounded=0;orthogonalLoop=1;jettySize=auto;html=1;" edge="1" source="lVMfPq70TvMpyvhITLPj-11" parent="1">
          <mxGeometry relative="1" as="geometry">
            <mxPoint x="-600" y="-840" as="targetPoint" />
          </mxGeometry>
        </mxCell>
        <mxCell id="lVMfPq70TvMpyvhITLPj-11" value="กำหนดตัวแปร n" style="rounded=0;whiteSpace=wrap;html=1;" vertex="1" parent="1">
          <mxGeometry x="-680" y="-910" width="160" height="40" as="geometry" />
        </mxCell>
        <mxCell id="lVMfPq70TvMpyvhITLPj-22" value="" style="edgeStyle=orthogonalEdgeStyle;rounded=0;orthogonalLoop=1;jettySize=auto;html=1;" edge="1" parent="1" source="lVMfPq70TvMpyvhITLPj-12" target="lVMfPq70TvMpyvhITLPj-21">
          <mxGeometry relative="1" as="geometry" />
        </mxCell>
        <mxCell id="lVMfPq70TvMpyvhITLPj-12" value="กรอกค่าตัวแปร n" style="rounded=0;whiteSpace=wrap;html=1;shape=parallelogram;perimeter=parallelogramPerimeter;fixedSize=1;" vertex="1" parent="1">
          <mxGeometry x="-680" y="-630" width="160" height="40" as="geometry" />
        </mxCell>
        <mxCell id="lVMfPq70TvMpyvhITLPj-45" value="" style="edgeStyle=orthogonalEdgeStyle;rounded=0;orthogonalLoop=1;jettySize=auto;html=1;" edge="1" parent="1" source="lVMfPq70TvMpyvhITLPj-15" target="lVMfPq70TvMpyvhITLPj-43">
          <mxGeometry relative="1" as="geometry" />
        </mxCell>
        <mxCell id="lVMfPq70TvMpyvhITLPj-15" value="วนครบหรือไม่" style="rhombus;whiteSpace=wrap;html=1;" vertex="1" parent="1">
          <mxGeometry x="-664" width="128" height="80" as="geometry" />
        </mxCell>
        <mxCell id="lVMfPq70TvMpyvhITLPj-19" value="" style="edgeStyle=orthogonalEdgeStyle;rounded=0;orthogonalLoop=1;jettySize=auto;html=1;" edge="1" source="lVMfPq70TvMpyvhITLPj-20" parent="1">
          <mxGeometry relative="1" as="geometry">
            <mxPoint x="-600" y="-910" as="targetPoint" />
          </mxGeometry>
        </mxCell>
        <mxCell id="lVMfPq70TvMpyvhITLPj-20" value="กำหนดตัวแปร arr" style="rounded=0;whiteSpace=wrap;html=1;" vertex="1" parent="1">
          <mxGeometry x="-680" y="-980" width="160" height="40" as="geometry" />
        </mxCell>
        <mxCell id="lVMfPq70TvMpyvhITLPj-26" value="" style="edgeStyle=orthogonalEdgeStyle;rounded=0;orthogonalLoop=1;jettySize=auto;html=1;" edge="1" parent="1" source="lVMfPq70TvMpyvhITLPj-21" target="lVMfPq70TvMpyvhITLPj-23">
          <mxGeometry relative="1" as="geometry" />
        </mxCell>
        <mxCell id="lVMfPq70TvMpyvhITLPj-21" value="วนรอบตามค่า N" style="rounded=0;whiteSpace=wrap;html=1;" vertex="1" parent="1">
          <mxGeometry x="-680" y="-560" width="160" height="40" as="geometry" />
        </mxCell>
        <mxCell id="lVMfPq70TvMpyvhITLPj-27" value="" style="edgeStyle=orthogonalEdgeStyle;rounded=0;orthogonalLoop=1;jettySize=auto;html=1;" edge="1" parent="1" target="lVMfPq70TvMpyvhITLPj-24">
          <mxGeometry relative="1" as="geometry">
            <mxPoint x="-599" y="-385" as="sourcePoint" />
          </mxGeometry>
        </mxCell>
        <mxCell id="lVMfPq70TvMpyvhITLPj-40" value="" style="edgeStyle=orthogonalEdgeStyle;rounded=0;orthogonalLoop=1;jettySize=auto;html=1;" edge="1" parent="1" source="lVMfPq70TvMpyvhITLPj-23" target="lVMfPq70TvMpyvhITLPj-39">
          <mxGeometry relative="1" as="geometry" />
        </mxCell>
        <mxCell id="lVMfPq70TvMpyvhITLPj-23" value="arr = random" style="rounded=0;whiteSpace=wrap;html=1;" vertex="1" parent="1">
          <mxGeometry x="-679" y="-490" width="160" height="40" as="geometry" />
        </mxCell>
        <mxCell id="lVMfPq70TvMpyvhITLPj-29" value="" style="edgeStyle=orthogonalEdgeStyle;rounded=0;orthogonalLoop=1;jettySize=auto;html=1;" edge="1" parent="1" source="lVMfPq70TvMpyvhITLPj-24" target="lVMfPq70TvMpyvhITLPj-28">
          <mxGeometry relative="1" as="geometry" />
        </mxCell>
        <mxCell id="lVMfPq70TvMpyvhITLPj-31" value="" style="edgeStyle=orthogonalEdgeStyle;rounded=0;orthogonalLoop=1;jettySize=auto;html=1;" edge="1" parent="1" source="lVMfPq70TvMpyvhITLPj-24" target="lVMfPq70TvMpyvhITLPj-30">
          <mxGeometry relative="1" as="geometry" />
        </mxCell>
        <mxCell id="lVMfPq70TvMpyvhITLPj-24" value="arr &amp;gt;= Max&amp;nbsp;&lt;div&gt;หรือไม่&lt;/div&gt;" style="rhombus;whiteSpace=wrap;html=1;" vertex="1" parent="1">
          <mxGeometry x="-664" y="-345" width="128" height="80" as="geometry" />
        </mxCell>
        <mxCell id="lVMfPq70TvMpyvhITLPj-33" value="" style="edgeStyle=orthogonalEdgeStyle;rounded=0;orthogonalLoop=1;jettySize=auto;html=1;" edge="1" parent="1" source="lVMfPq70TvMpyvhITLPj-28" target="lVMfPq70TvMpyvhITLPj-32">
          <mxGeometry relative="1" as="geometry" />
        </mxCell>
        <mxCell id="lVMfPq70TvMpyvhITLPj-56" value="" style="edgeStyle=orthogonalEdgeStyle;rounded=0;orthogonalLoop=1;jettySize=auto;html=1;" edge="1" parent="1" source="lVMfPq70TvMpyvhITLPj-28" target="lVMfPq70TvMpyvhITLPj-55">
          <mxGeometry relative="1" as="geometry" />
        </mxCell>
        <mxCell id="lVMfPq70TvMpyvhITLPj-28" value="arr &amp;lt;= min&lt;div&gt;หรือไม่&lt;/div&gt;" style="rhombus;whiteSpace=wrap;html=1;" vertex="1" parent="1">
          <mxGeometry x="-664" y="-215" width="128" height="80" as="geometry" />
        </mxCell>
        <mxCell id="lVMfPq70TvMpyvhITLPj-59" style="edgeStyle=orthogonalEdgeStyle;rounded=0;orthogonalLoop=1;jettySize=auto;html=1;entryX=0.5;entryY=0;entryDx=0;entryDy=0;" edge="1" parent="1" source="lVMfPq70TvMpyvhITLPj-30" target="lVMfPq70TvMpyvhITLPj-54">
          <mxGeometry relative="1" as="geometry" />
        </mxCell>
        <mxCell id="lVMfPq70TvMpyvhITLPj-30" value="Max = Random&amp;nbsp;" style="rounded=0;whiteSpace=wrap;html=1;" vertex="1" parent="1">
          <mxGeometry x="-500" y="-325" width="160" height="40" as="geometry" />
        </mxCell>
        <mxCell id="lVMfPq70TvMpyvhITLPj-58" value="" style="edgeStyle=orthogonalEdgeStyle;rounded=0;orthogonalLoop=1;jettySize=auto;html=1;" edge="1" parent="1" source="lVMfPq70TvMpyvhITLPj-32" target="lVMfPq70TvMpyvhITLPj-54">
          <mxGeometry relative="1" as="geometry" />
        </mxCell>
        <mxCell id="lVMfPq70TvMpyvhITLPj-32" value="Min = Random&amp;nbsp;" style="rounded=0;whiteSpace=wrap;html=1;" vertex="1" parent="1">
          <mxGeometry x="-500" y="-195" width="160" height="40" as="geometry" />
        </mxCell>
        <mxCell id="lVMfPq70TvMpyvhITLPj-39" value="" style="ellipse;whiteSpace=wrap;html=1;aspect=fixed;" vertex="1" parent="1">
          <mxGeometry x="-614" y="-415" width="30" height="30" as="geometry" />
        </mxCell>
        <mxCell id="lVMfPq70TvMpyvhITLPj-63" value="" style="edgeStyle=orthogonalEdgeStyle;rounded=0;orthogonalLoop=1;jettySize=auto;html=1;" edge="1" parent="1" source="lVMfPq70TvMpyvhITLPj-43" target="lVMfPq70TvMpyvhITLPj-62">
          <mxGeometry relative="1" as="geometry" />
        </mxCell>
        <mxCell id="lVMfPq70TvMpyvhITLPj-43" value="Print&amp;nbsp;" style="shape=process;whiteSpace=wrap;html=1;backgroundOutline=1;" vertex="1" parent="1">
          <mxGeometry x="-660" y="115" width="120" height="60" as="geometry" />
        </mxCell>
        <mxCell id="lVMfPq70TvMpyvhITLPj-47" value="" style="edgeStyle=orthogonalEdgeStyle;rounded=0;orthogonalLoop=1;jettySize=auto;html=1;" edge="1" parent="1" source="lVMfPq70TvMpyvhITLPj-44" target="lVMfPq70TvMpyvhITLPj-46">
          <mxGeometry relative="1" as="geometry" />
        </mxCell>
        <mxCell id="lVMfPq70TvMpyvhITLPj-44" value="Start Print&amp;nbsp;" style="shape=process;whiteSpace=wrap;html=1;backgroundOutline=1;" vertex="1" parent="1">
          <mxGeometry x="-390" y="-1030" width="120" height="60" as="geometry" />
        </mxCell>
        <mxCell id="lVMfPq70TvMpyvhITLPj-49" value="" style="edgeStyle=orthogonalEdgeStyle;rounded=0;orthogonalLoop=1;jettySize=auto;html=1;" edge="1" parent="1" source="lVMfPq70TvMpyvhITLPj-46" target="lVMfPq70TvMpyvhITLPj-48">
          <mxGeometry relative="1" as="geometry" />
        </mxCell>
        <mxCell id="lVMfPq70TvMpyvhITLPj-46" value="ปริ้นค่า arr ตามรอบ n&amp;nbsp;" style="rounded=0;whiteSpace=wrap;html=1;shape=parallelogram;perimeter=parallelogramPerimeter;fixedSize=1;" vertex="1" parent="1">
          <mxGeometry x="-402" y="-940" width="144" height="60" as="geometry" />
        </mxCell>
        <mxCell id="lVMfPq70TvMpyvhITLPj-51" value="" style="edgeStyle=orthogonalEdgeStyle;rounded=0;orthogonalLoop=1;jettySize=auto;html=1;" edge="1" parent="1" source="lVMfPq70TvMpyvhITLPj-48" target="lVMfPq70TvMpyvhITLPj-50">
          <mxGeometry relative="1" as="geometry" />
        </mxCell>
        <mxCell id="lVMfPq70TvMpyvhITLPj-48" value="ปริ้นค่า Max" style="rounded=0;whiteSpace=wrap;html=1;shape=parallelogram;perimeter=parallelogramPerimeter;fixedSize=1;" vertex="1" parent="1">
          <mxGeometry x="-410" y="-840" width="160" height="40" as="geometry" />
        </mxCell>
        <mxCell id="lVMfPq70TvMpyvhITLPj-53" value="" style="edgeStyle=orthogonalEdgeStyle;rounded=0;orthogonalLoop=1;jettySize=auto;html=1;" edge="1" parent="1" source="lVMfPq70TvMpyvhITLPj-50" target="lVMfPq70TvMpyvhITLPj-52">
          <mxGeometry relative="1" as="geometry" />
        </mxCell>
        <mxCell id="lVMfPq70TvMpyvhITLPj-50" value="ปริ้นค่า Min" style="rounded=0;whiteSpace=wrap;html=1;shape=parallelogram;perimeter=parallelogramPerimeter;fixedSize=1;" vertex="1" parent="1">
          <mxGeometry x="-410" y="-760" width="160" height="40" as="geometry" />
        </mxCell>
        <mxCell id="lVMfPq70TvMpyvhITLPj-52" value="End Print&amp;nbsp;" style="shape=process;whiteSpace=wrap;html=1;backgroundOutline=1;" vertex="1" parent="1">
          <mxGeometry x="-390" y="-680" width="120" height="60" as="geometry" />
        </mxCell>
        <mxCell id="lVMfPq70TvMpyvhITLPj-61" style="edgeStyle=orthogonalEdgeStyle;rounded=0;orthogonalLoop=1;jettySize=auto;html=1;entryX=1;entryY=0.5;entryDx=0;entryDy=0;" edge="1" parent="1" source="lVMfPq70TvMpyvhITLPj-54" target="lVMfPq70TvMpyvhITLPj-55">
          <mxGeometry relative="1" as="geometry">
            <Array as="points">
              <mxPoint x="-265" y="-65" />
            </Array>
          </mxGeometry>
        </mxCell>
        <mxCell id="lVMfPq70TvMpyvhITLPj-54" value="" style="ellipse;whiteSpace=wrap;html=1;aspect=fixed;" vertex="1" parent="1">
          <mxGeometry x="-280" y="-190" width="30" height="30" as="geometry" />
        </mxCell>
        <mxCell id="lVMfPq70TvMpyvhITLPj-57" value="" style="edgeStyle=orthogonalEdgeStyle;rounded=0;orthogonalLoop=1;jettySize=auto;html=1;" edge="1" parent="1" source="lVMfPq70TvMpyvhITLPj-55" target="lVMfPq70TvMpyvhITLPj-15">
          <mxGeometry relative="1" as="geometry" />
        </mxCell>
        <mxCell id="lVMfPq70TvMpyvhITLPj-55" value="" style="ellipse;whiteSpace=wrap;html=1;aspect=fixed;" vertex="1" parent="1">
          <mxGeometry x="-615" y="-80" width="30" height="30" as="geometry" />
        </mxCell>
        <mxCell id="lVMfPq70TvMpyvhITLPj-62" value="&lt;font data-font-src=&quot;https://fonts.googleapis.com/css?family=Sarabun&quot; face=&quot;Sarabun&quot;&gt;End&lt;/font&gt;" style="ellipse;whiteSpace=wrap;html=1;" vertex="1" parent="1">
          <mxGeometry x="-665.0000000000001" y="220" width="130" height="30" as="geometry" />
        </mxCell>
        <mxCell id="lVMfPq70TvMpyvhITLPj-64" value="T" style="text;html=1;align=center;verticalAlign=middle;resizable=0;points=[];autosize=1;strokeColor=none;fillColor=none;" vertex="1" parent="1">
          <mxGeometry x="-536" y="-330" width="30" height="30" as="geometry" />
        </mxCell>
        <mxCell id="lVMfPq70TvMpyvhITLPj-65" value="T" style="text;html=1;align=center;verticalAlign=middle;resizable=0;points=[];autosize=1;strokeColor=none;fillColor=none;" vertex="1" parent="1">
          <mxGeometry x="-540" y="-200" width="30" height="30" as="geometry" />
        </mxCell>
        <mxCell id="lVMfPq70TvMpyvhITLPj-66" value="F" style="text;html=1;align=center;verticalAlign=middle;resizable=0;points=[];autosize=1;strokeColor=none;fillColor=none;" vertex="1" parent="1">
          <mxGeometry x="-585" y="-135" width="30" height="30" as="geometry" />
        </mxCell>
        <mxCell id="lVMfPq70TvMpyvhITLPj-67" value="F" style="text;html=1;align=center;verticalAlign=middle;resizable=0;points=[];autosize=1;strokeColor=none;fillColor=none;" vertex="1" parent="1">
          <mxGeometry x="-570" y="-285" width="30" height="30" as="geometry" />
        </mxCell>
        <mxCell id="lVMfPq70TvMpyvhITLPj-68" value="F" style="text;html=1;align=center;verticalAlign=middle;resizable=0;points=[];autosize=1;strokeColor=none;fillColor=none;" vertex="1" parent="1">
          <mxGeometry x="-679" width="30" height="30" as="geometry" />
        </mxCell>
        <mxCell id="lVMfPq70TvMpyvhITLPj-69" style="edgeStyle=orthogonalEdgeStyle;rounded=0;orthogonalLoop=1;jettySize=auto;html=1;entryX=0.001;entryY=0.337;entryDx=0;entryDy=0;entryPerimeter=0;" edge="1" parent="1" source="lVMfPq70TvMpyvhITLPj-15" target="lVMfPq70TvMpyvhITLPj-39">
          <mxGeometry relative="1" as="geometry">
            <Array as="points">
              <mxPoint x="-730" y="40" />
              <mxPoint x="-730" y="-405" />
            </Array>
          </mxGeometry>
        </mxCell>
        <mxCell id="lVMfPq70TvMpyvhITLPj-70" value="T" style="text;html=1;align=center;verticalAlign=middle;resizable=0;points=[];autosize=1;strokeColor=none;fillColor=none;" vertex="1" parent="1">
          <mxGeometry x="-600" y="70" width="30" height="30" as="geometry" />
        </mxCell>
      </root>
    </mxGraphModel>
  </diagram>
</mxfile>
